<svg preserveAspectRatio="none" width="100%" height="100%" overflow="visible" style="display: block;" viewBox="0 0 54.1667 69.7917" fill="none" xmlns="http://www.w3.org/2000/svg">
<path id="Vector" d="M0 69.7917V7.53229C0 5.42743 0.729167 3.64583 2.1875 2.1875C3.64583 0.729167 5.42743 0 7.53229 0H46.6344C48.7392 0 50.5208 0.729167 51.9792 2.1875C53.4375 3.64583 54.1667 5.42743 54.1667 7.53229V69.7917L27.0833 58.1729L0 69.7917ZM6.25 60.2083L27.0833 51.25L47.9167 60.2083V7.53229C47.9167 7.21146 47.783 6.91771 47.5156 6.65104C47.249 6.38368 46.9552 6.25 46.6344 6.25H7.53229C7.21146 6.25 6.91771 6.38368 6.65104 6.65104C6.38368 6.91771 6.25 7.21146 6.25 7.53229V60.2083Z" fill="var(--fill-0, #E3E3E3)"/>
</svg>
