<svg preserveAspectRatio="none" width="100%" height="100%" overflow="visible" style="display: block;" viewBox="0 0 138.58 26.6599" fill="none" xmlns="http://www.w3.org/2000/svg">
<g id="Group">
<path id="Vector" d="M125.182 26.5099C121.257 25.9612 117.652 23.2177 116.156 19.6831C114.456 15.638 114.545 10.2276 116.374 6.56535C118.342 2.59686 121.96 0.299988 126.626 0.0320195C132.328 -0.299751 137.109 2.99244 138.324 8.08384C138.464 8.6453 138.58 9.194 138.58 9.28332C138.58 9.39817 137.94 9.43645 135.793 9.43645H132.993L132.827 8.90051C132.456 7.64999 131.523 6.42499 130.474 5.82525C129.107 5.0341 126.972 4.80442 125.348 5.27655C123.29 5.87629 121.641 7.73931 121.001 10.2021C120.874 10.6997 120.759 11.7716 120.72 12.8818C120.643 15.1148 120.912 16.6844 121.628 18.2029C122.842 20.7422 125.386 22.082 128.224 21.6864C130.5 21.3674 131.996 20.1169 132.712 17.9604L132.993 17.0927H135.78C137.429 17.0927 138.58 17.1437 138.58 17.2075C138.58 17.5138 138.183 19.1471 137.94 19.8234C136.291 24.5831 131.011 27.3521 125.182 26.5099Z" fill="var(--fill-0, #F8FAFC)"/>
<path id="Vector_2" d="M9.39631 26.1271C8.98722 24.9914 0.242899 0.976292 0.140626 0.721084L1.2121e-06 0.376552L3.04261 0.402073L6.07244 0.440354L7.08239 3.34973L8.09233 6.24634L13.0142 6.22082L17.9233 6.18254L18.9332 3.32421C19.4957 1.74192 19.9688 0.440354 19.9943 0.414834C20.0071 0.389313 21.3878 0.389313 23.0369 0.402073L26.054 0.440354L23.7017 6.88436C22.3977 10.4318 21.081 14.043 20.7741 14.9234C20.4545 15.8039 19.3935 18.7005 18.4219 21.3674L16.6577 26.2164L13.0526 26.2547C10.2401 26.2802 9.44744 26.2547 9.39631 26.1271ZM14.1136 17.3862C14.6378 15.8549 15.3537 13.7622 15.7116 12.7414C16.0696 11.7078 16.3636 10.8273 16.3636 10.7891C16.3636 10.7508 14.8679 10.7125 13.0398 10.7125C10.7386 10.7125 9.71591 10.7508 9.71591 10.8529C9.71591 10.9294 10.4318 13.0732 11.3139 15.638C12.196 18.1901 12.9119 20.3466 12.9119 20.4359C12.9247 20.7805 13.206 20.0786 14.1136 17.3862Z" fill="var(--fill-0, #F8FAFC)"/>
<path id="Vector_3" d="M28.5341 17.0672C28.5852 6.76952 28.5469 7.21613 29.5057 5.22551C30.1321 3.93671 31.8707 2.17577 33.2003 1.48671C36.3196 -0.133866 40.3338 -0.452876 43.6577 0.644519C47.0582 1.7802 49.206 4.02603 49.9858 7.2927C50.2287 8.30077 50.2415 8.78566 50.2415 17.3224V26.2802H47.429H44.6293L44.5909 17.4245L44.5526 8.5815L44.0412 7.57342C43.6577 6.82056 43.3764 6.46327 42.9162 6.11874C41.8935 5.35311 41.2031 5.16171 39.375 5.16171C37.9943 5.16171 37.6747 5.21275 37.0099 5.46796C35.9744 5.88905 34.9261 6.9354 34.5043 7.969L34.1974 8.73462L34.1591 17.5138L34.1207 26.2802H31.3082H28.4957L28.5341 17.0672Z" fill="var(--fill-0, #F8FAFC)"/>
<path id="Vector_4" d="M54.652 26.1271C54.6136 26.0378 54.6009 20.219 54.6136 13.2008L54.652 0.440354L57.5028 0.402073L60.3409 0.376552V5.0341V9.69166H62.3736H64.419L65.4418 7.68827C66.017 6.57811 67.0909 4.49817 67.8452 3.05624L69.2259 0.440354L72.3324 0.402073C74.0327 0.389313 75.4261 0.402073 75.4261 0.427594C75.4261 0.465875 75.0426 1.19322 74.5824 2.06093C72.5753 5.74869 70.0568 10.5083 70.0952 10.5338C70.108 10.5466 70.4659 10.7635 70.9006 11.0187C72.5369 11.9758 73.9048 13.8898 74.3523 15.8932C74.6591 17.2969 74.5568 19.4661 74.0966 20.8698C73.2145 23.6133 70.8622 25.5146 67.6278 26.1016C66.2983 26.344 54.7415 26.3568 54.652 26.1271ZM66.6946 21.3164C68.0114 20.7294 68.7784 19.4661 68.7784 17.9221C68.7784 16.4547 68.1264 15.319 66.9375 14.6937C66.2983 14.3492 66.2344 14.3492 63.3068 14.2854L60.3409 14.2216V17.9604V21.6992L63.1918 21.6609C65.8509 21.6226 66.0682 21.6099 66.6946 21.3164Z" fill="var(--fill-0, #F8FAFC)"/>
<path id="Vector_5" d="M85.2315 24.2768C84.848 23.1667 82.7514 17.4372 80.6037 11.5419C78.4432 5.6466 76.6534 0.721084 76.6151 0.60624C76.5511 0.389313 76.7557 0.376552 79.5554 0.376552H82.5597L83.4673 3.0052C83.9659 4.45989 84.4133 5.77421 84.4517 5.94009L84.5284 6.24634H89.4758H94.4105L95.4332 3.31145L96.456 0.376552H99.5114C102.349 0.376552 102.554 0.389313 102.503 0.60624C102.452 0.797646 101.199 4.21744 97.7344 13.6474C97.1591 15.2297 95.8807 18.7133 94.9091 21.393L93.1321 26.2802H89.5398H85.9474L85.2315 24.2768ZM91.2273 15.6253C92.0966 13.0987 92.8125 10.9549 92.8125 10.8784C92.8125 10.7508 92.071 10.7125 89.4886 10.7125C87.6605 10.7125 86.1648 10.738 86.1648 10.7508C86.1648 10.7763 86.7784 12.5755 87.5199 14.7448C88.2614 16.9141 89.0284 19.1216 89.2074 19.6448C89.3864 20.168 89.5526 20.5125 89.5909 20.4104C89.6293 20.3083 90.3579 18.1518 91.2273 15.6253Z" fill="var(--fill-0, #F8FAFC)"/>
<path id="Vector_6" d="M105.341 13.3284V0.376552H108.153H110.966V13.3284V26.2802H108.153H105.341V13.3284Z" fill="var(--fill-0, #F8FAFC)"/>
</g>
</svg>
